<?xml version="1.0" encoding="UTF-8"?>
<svg width="63px" height="53px" viewBox="0 0 63 53" version="1.1" xmlns="http://www.w3.org/2000/svg" xmlns:xlink="http://www.w3.org/1999/xlink">
    <!-- Generator: Sketch 50.2 (55047) - http://www.bohemiancoding.com/sketch -->
    <title>Group 6</title>
    <desc>Created with Sketch.</desc>
    <defs></defs>
    <g id="Final" stroke="none" stroke-width="1" fill="none" fill-rule="evenodd">
        <g id="switch-panel-feedback" transform="translate(-609.000000, -163.000000)">
            <g id="Group-7" transform="translate(475.000000, 163.000000)">
                <g id="Group-6" transform="translate(134.000000, 0.000000)">
                    <path d="M4.1996976,0 L59.5370291,0 C60.6326569,3.6911884e-15 61.5243401,0.881520943 61.5368977,1.9770768 L62.0605815,47.6643637 C62.0732416,48.7688606 61.188133,49.6744954 60.0836361,49.6871555 C60.0759953,49.6872431 60.0683541,49.6872869 60.0607129,49.6872869 L4.1996976,49.6872869 C3.0951281,49.6872869 2.1996976,48.7918564 2.1996976,47.6872869 L2.1996976,2 C2.1996976,0.8954305 3.0951281,2.02906125e-16 4.1996976,0 Z" id="Rectangle-14" fill="#ECF5FF"></path>
                    <path d="M2,3.10545543 L58.6991536,3.10545543 C59.8037231,3.10545543 60.6991536,4.00088593 60.6991536,5.10545543 L60.6991536,50.7927423 C60.6991536,51.8973118 59.8037231,52.7927423 58.6991536,52.7927423 L2,52.7927423 C0.8954305,52.7927423 1.3527075e-16,51.8973118 0,50.7927423 L0,5.10545543 C-1.3527075e-16,4.00088593 0.8954305,3.10545543 2,3.10545543 Z" id="Rectangle-14" fill="#ECF5FF"></path>
                    <path d="M2,2.57030362 C1.17157288,2.57030362 0.5,3.24187649 0.5,4.07030362 L0.5,49.7575905 C0.5,50.5860176 1.17157288,51.2575905 2,51.2575905 L58.6991536,51.2575905 C59.5275807,51.2575905 60.1991536,50.5860176 60.1991536,49.7575905 L60.1991536,4.07030362 C60.1991536,3.24187649 59.5275807,2.57030362 58.6991536,2.57030362 L2,2.57030362 Z" id="Rectangle-14" stroke="#D1D5DD" fill="#FFFFFF"></path>
                    <g id="cog-wheel-silhouette-(2)" transform="translate(20.769231, 22.153846)">
                        <path d="M23.4044156,9.77508724 C23.3298861,9.67886856 23.2326419,9.62162758 23.1121955,9.60346041 L20.565372,9.21935468 C20.4262568,8.78021878 20.2360578,8.33209542 19.9948726,7.87460012 C20.1616745,7.64592455 20.4120723,7.3235295 20.7460172,6.90717465 C21.0799621,6.49091592 21.3164678,6.18688027 21.4557781,5.99468322 C21.5300151,5.8940429 21.5668656,5.78893289 21.5668656,5.67906481 C21.5668656,5.55107762 21.5346946,5.45053343 21.4694751,5.37723998 C21.1356764,4.91066109 20.3702012,4.1331738 19.1733418,3.04453779 C19.0624493,2.95307717 18.9461462,2.9073709 18.8256999,2.9073709 C18.6864383,2.9073709 18.5751559,2.94846329 18.4916087,3.0307442 L16.515577,4.49896818 C16.1350816,4.30677113 15.7175896,4.13754737 15.2631983,3.99120078 L14.873539,1.4665899 C14.8642289,1.3476863 14.8108055,1.24930486 14.7134151,1.17154172 C14.6158784,1.09368245 14.5024512,1.05494505 14.3723536,1.05494505 L11.282961,1.05494505 C11.0138943,1.05494505 10.8468487,1.18293224 10.7819705,1.43909885 C10.6613291,1.89630579 10.5267471,2.74703847 10.3783704,3.99115272 C9.94225815,4.12860798 9.5201354,4.30239756 9.11195342,4.51276177 L7.19148988,3.04453779 C7.0708973,2.95307717 6.95030473,2.9073709 6.82971216,2.9073709 C6.62562117,2.9073709 6.18731542,3.23437983 5.51464868,3.88844577 C4.84198194,4.54265589 4.38529971,5.0342747 4.14387084,5.36344639 C4.06032369,5.48235 4.01869634,5.5876042 4.01869634,5.67906481 C4.01869634,5.78893289 4.06500311,5.89870485 4.15776287,6.00833262 C4.77929719,6.74943753 5.2757545,7.38043405 5.64689106,7.90209117 C5.41491852,8.32281959 5.23402966,8.74369221 5.10427322,9.16442064 L2.51572487,9.54852637 C2.41370375,9.56688578 2.3256234,9.6264337 2.25133759,9.72707402 C2.17690555,9.82761821 2.13986014,9.93292047 2.13986014,10.0425002 L2.13986014,13.0887682 C2.13986014,13.207864 2.17690555,13.3150887 2.25119136,13.4111632 C2.32547717,13.5071897 2.42281887,13.564719 2.54346018,13.5828381 L5.09033245,13.9533906 C5.22013763,14.401562 5.41028784,14.8542031 5.66083183,15.3114581 C5.49393249,15.5402779 5.24343725,15.8626248 4.90944359,16.2788836 C4.57549867,16.6953346 4.33870048,16.9992741 4.19968269,17.191375 C4.12534814,17.2923998 4.08830272,17.3973176 4.08830272,17.5071376 C4.08830272,17.625897 4.1207662,17.731007 4.18564442,17.8224676 C4.54747089,18.3167298 5.31284865,19.0851335 6.48192395,20.1279191 C6.58404256,20.2285594 6.7000532,20.2787354 6.82980964,20.2787354 C6.96907116,20.2787354 7.08503305,20.2377872 7.17774408,20.1555543 L9.14012744,18.6871381 C9.52072033,18.879239 9.93811491,19.0485109 10.3927011,19.1950497 L10.7823117,21.7196606 C10.7917193,21.83842 10.8450452,21.9368014 10.9423381,22.0147568 C11.0396798,22.0927122 11.1534482,22.1312093 11.2833022,22.1312093 L14.3726948,22.1312093 C14.6422489,22.1312093 14.8090508,22.0032702 14.874124,21.7470074 C14.9945703,21.2897524 15.1290062,20.4391159 15.2774315,19.1950497 C15.7134951,19.0576906 16.1356666,18.8838049 16.5438485,18.6733445 L18.4644583,20.1555543 C18.5942635,20.2378352 18.7150511,20.2787354 18.8261386,20.2787354 C19.0301808,20.2787354 19.4661956,19.9542256 20.1340854,19.3045333 C20.8023165,18.6551774 21.2615334,18.1611555 21.5117849,17.8224676 C21.5951858,17.7310551 21.6370081,17.625897 21.6370081,17.5071376 C21.6370081,17.3880418 21.5908476,17.2734637 21.4977466,17.1640281 C20.8300518,16.3588095 20.3335945,15.727861 20.0088134,15.2703177 C20.194333,14.9318221 20.3753193,14.5157075 20.5516262,14.0216856 L23.1261363,13.6377722 C23.2372238,13.6193647 23.3303248,13.5598168 23.4043669,13.4591764 C23.4786039,13.3583439 23.5154544,13.2530897 23.5154544,13.1433658 L23.5154544,10.0974342 C23.5156981,9.97853063 23.4788477,9.87120979 23.4044156,9.77508724 Z" id="Path" fill="#E3EDFA"></path>
                        <path d="M21.2645555,8.72014218 C21.190026,8.6239235 21.0927818,8.56668252 20.9723354,8.54851536 L18.4255119,8.16440962 C18.2863966,7.72527372 18.0961977,7.27715037 17.8550125,6.81965506 C18.0218144,6.5909795 18.2722121,6.26858445 18.606157,5.85222959 C18.9401019,5.43597086 19.1766077,5.13193522 19.3159179,4.93973817 C19.390155,4.83909785 19.4270054,4.73398783 19.4270054,4.62411975 C19.4270054,4.49613257 19.3948344,4.39558838 19.329615,4.32229493 C18.9958163,3.85571604 18.230341,3.07822874 17.0334817,1.98959273 C16.9225892,1.89813212 16.8062861,1.85242584 16.6858397,1.85242584 C16.5465782,1.85242584 16.4352957,1.89351824 16.3517486,1.97579914 L14.3757169,3.44402313 C13.9952215,3.25182608 13.5777294,3.08260232 13.1233382,2.93625573 L12.7336789,0.411644847 C12.7243688,0.292741245 12.6709454,0.194359809 12.573555,0.116596661 C12.4760183,0.0387373902 12.3625911,0 12.2324934,0 L9.14310082,0 C8.87403412,0 8.70698855,0.127987184 8.64211033,0.384153796 C8.52146901,0.841360735 8.38688692,1.69209342 8.23851028,2.93620766 C7.80239801,3.07366292 7.38027526,3.2474525 6.97209328,3.45781672 L5.05162974,1.98959273 C4.93103716,1.89813212 4.81044459,1.85242584 4.68985202,1.85242584 C4.48576103,1.85242584 4.04745528,2.17943478 3.37478854,2.83350071 C2.7021218,3.48771083 2.24543957,3.97932965 2.0040107,4.30850134 C1.92046355,4.42740494 1.8788362,4.53265914 1.8788362,4.62411975 C1.8788362,4.73398783 1.92514297,4.84375979 2.01790274,4.95338757 C2.63943705,5.69449248 3.13589436,6.325489 3.50703092,6.84714611 C3.27505838,7.26787454 3.09416952,7.68874715 2.96441308,8.10947558 L0.375864728,8.49358132 C0.273843605,8.51194072 0.185763257,8.57148865 0.111477452,8.67212896 C0.0370454147,8.77267316 0,8.87797542 0,8.98755513 L0,12.0338231 C0,12.152919 0.0370454147,12.2601437 0.11133122,12.3562182 C0.185617025,12.4522446 0.282958727,12.509774 0.403600045,12.5278931 L2.95047231,12.8984455 C3.08027749,13.3466169 3.2704277,13.7992581 3.52097169,14.2565131 C3.35407235,14.4853328 3.10357711,14.8076798 2.76958345,15.2239385 C2.43563853,15.6403895 2.19884034,15.944329 2.05982255,16.1364299 C1.985488,16.2374548 1.94844258,16.3423725 1.94844258,16.4521925 C1.94844258,16.570952 1.98090606,16.676062 2.04578428,16.7675226 C2.40761075,17.2617848 3.17298851,18.0301885 4.34206381,19.072974 C4.44418242,19.1736144 4.56019306,19.2237903 4.6899495,19.2237903 C4.82921102,19.2237903 4.94517291,19.1828421 5.03788394,19.1006093 L7.0002673,17.632193 C7.38086019,17.824294 7.79825477,17.9935658 8.25284101,18.1401046 L8.64245153,20.6647155 C8.65185912,20.7834749 8.70518502,20.8818564 8.80247798,20.9598118 C8.89981968,21.0377672 9.0135881,21.0762642 9.14344202,21.0762642 L12.2328346,21.0762642 C12.5023888,21.0762642 12.6691906,20.9483251 12.7342638,20.6920624 C12.8547102,20.2348074 12.989146,19.3841708 13.1375714,18.1401046 C13.5736349,18.0027455 13.9958064,17.8288598 14.4039884,17.6183995 L16.3245982,19.1006093 C16.4544034,19.1828902 16.5751909,19.2237903 16.6862784,19.2237903 C16.8903207,19.2237903 17.3263354,18.8992806 17.9942253,18.2495882 C18.6624563,17.6002323 19.1216732,17.1062104 19.3719247,16.7675226 C19.4553257,16.67611 19.497148,16.570952 19.497148,16.4521925 C19.497148,16.3330967 19.4509875,16.2185186 19.3578865,16.1090831 C18.6901916,15.3038644 18.1937343,14.672916 17.8689533,14.2153726 C18.0544728,13.876877 18.2354592,13.4607625 18.4117661,12.9667406 L20.9862762,12.5828271 C21.0973637,12.5644196 21.1904647,12.5048717 21.2645067,12.4042314 C21.3387438,12.3033988 21.3755942,12.1981446 21.3755942,12.0884207 L21.3755942,9.04248917 C21.375838,8.92358557 21.3389875,8.81626474 21.2645555,8.72014218 Z" id="Path" fill="#F9F9FB"></path>
                        <path d="M20.8755993,9.03958036 L18.0429311,8.61236423 L17.9488581,8.3154103 C17.8191051,7.90582768 17.6405784,7.48506091 17.4127121,7.05282965 L17.2672756,6.77695635 L17.4510586,6.52500064 C17.6227715,6.28959225 17.8768802,5.96234244 18.2161517,5.53934652 C18.5455888,5.12870668 18.7778285,4.83013773 18.9135448,4.6429287 C18.9262413,4.62571658 18.9270054,4.62354334 18.9270054,4.62411975 C18.9270054,4.61056716 18.9327711,4.62847313 18.922966,4.61321868 C18.6164349,4.18475397 17.8689643,3.42542268 16.7153434,2.37532328 C16.6903851,2.35473844 16.6845181,2.35242584 16.6858397,2.35242584 C16.6721442,2.35242584 16.6877434,2.34666543 16.6499518,2.37714046 L14.4259869,4.02958291 L14.1502828,3.8903184 C13.7939069,3.71030464 13.4005368,3.5508264 12.9700562,3.41218075 L12.6762699,3.31756049 L12.6291894,3.01252477 L12.2428243,0.500221587 C12.2400072,0.500057379 12.2366424,0.5 12.2324934,0.5 L9.14310082,0.5 C9.10135558,0.5 9.1351112,0.474121701 9.12556325,0.511720534 C9.01256831,0.939949201 8.88068144,1.77383576 8.73499186,2.99541948 L8.6967557,3.3160236 L8.38881304,3.41308195 C7.97955207,3.54207412 7.58379364,3.70506103 7.20114786,3.90226469 L6.91983396,4.04724507 L6.66841597,3.85503214 L4.74948558,2.3879756 C4.71120603,2.35894337 4.69401454,2.35242584 4.68985202,2.35242584 C4.68057667,2.35242584 4.27755679,2.65309484 3.72339034,3.1919373 C3.07000589,3.82739419 2.62833803,4.30269465 2.41311744,4.59595861 C2.38375176,4.63775158 2.3788362,4.65015449 2.3788362,4.62411975 C2.3788362,4.60619403 2.37857298,4.60557061 2.40100806,4.63209283 C3.03210638,5.38460166 3.53568863,6.02492756 3.91444203,6.55729066 L4.0966234,6.81335868 L3.94488731,7.08856231 C3.72910395,7.47992844 3.56169312,7.86940135 3.44220623,8.2568313 L3.34937648,8.55782686 L3.03780278,8.60406021 L0.506149053,8.97948862 C0.500432289,8.98746644 0.5,8.98847051 0.5,8.98755513 L0.5,12.0338231 C0.5,12.0349075 0.499998629,12.0358364 0.500014999,12.0366564 L3.34114338,12.4500211 L3.43073401,12.7593459 C3.55005577,13.1713218 3.72603188,13.5902288 3.95946227,14.0162507 L4.11201508,14.294667 L3.92493208,14.5511586 C3.75339408,14.786338 3.49950362,15.1131833 3.15965931,15.5367337 C2.82565888,15.9532539 2.59587254,16.2485542 2.46254985,16.4327587 C2.44925713,16.4508242 2.44844258,16.4531329 2.44844258,16.4521925 C2.44844258,16.468812 2.44962018,16.4726262 2.44923284,16.4721766 C2.78430886,16.9298971 3.53063409,17.6791958 4.69303016,18.7168524 C4.70048766,18.7242019 4.69873178,18.7247401 4.69521093,18.7243485 C4.71061421,18.7237846 4.71049164,18.7228362 4.73832428,18.7002794 L6.94886856,17.0461688 L7.22556555,17.1858292 C7.58238393,17.3659301 7.97578986,17.5254589 8.40624579,17.6642192 L8.69992907,17.7588899 L8.74699124,18.0638449 L9.13332941,20.5760669 C9.13609586,20.5762113 9.13939743,20.5762642 9.14344202,20.5762642 L12.2328346,20.5762642 C12.275034,20.5762642 12.2412192,20.6021803 12.2507568,20.5647009 C12.3635567,20.1364743 12.4953026,19.3028465 12.6410924,18.0808714 L12.6793476,17.7602248 L12.987349,17.663205 C13.3963197,17.5343801 13.7920844,17.3713502 14.1748511,17.1739941 L14.4576121,17.0282014 L14.7094672,17.2225678 L16.592289,18.6783041 C16.6471423,18.7130745 16.6786512,18.7237903 16.6862784,18.7237903 C16.6959003,18.7237903 17.0958252,18.42597 17.6457725,17.8910068 C18.2852673,17.2695754 18.7250945,16.7975095 18.9895547,16.447808 C18.9859782,16.4436439 18.9807212,16.4373381 18.9729964,16.4282376 C18.2952944,15.6109507 17.7933347,14.9726495 17.4612303,14.5047893 L17.2800511,14.2495485 L17.4304886,13.9750629 C17.6023779,13.6614368 17.7730396,13.2689129 17.9408561,12.7986818 L18.0415926,12.5164125 L18.338021,12.4722088 L20.871404,12.0944936 C20.8752251,12.0889666 20.8755942,12.0880462 20.8755942,12.0884207 L20.8755953,9.04146431 C20.8755967,9.04076924 20.8756001,9.04014617 20.8755993,9.03958036 Z M12.2607256,0.506600748 C12.26103,0.506874275 12.2613294,0.507128711 12.2616231,0.507363218 C12.2609252,0.506806132 12.2602642,0.506289922 12.2596262,0.505811721 Z M9.11584586,20.5702351 C9.11556779,20.5699855 9.11529434,20.5697528 9.115026,20.5695378 C9.11566211,20.5700473 9.11626648,20.5705195 9.11685298,20.5709571 Z M20.8627359,12.1070112 C20.862276,12.1073652 20.8619795,12.1076308 20.8618633,12.1077888 C20.8625464,12.1068609 20.8631957,12.1059753 20.8638129,12.1051302 Z M13.5580404,13.3777064 C12.7686879,14.1562984 11.8028393,14.550955 10.6880896,14.550955 C9.57347148,14.550955 8.60771962,14.1563248 7.81806001,13.3777248 C7.02725773,12.5980528 6.6254418,11.6419277 6.6254418,10.5382042 C6.6254418,9.43431142 7.02711429,8.478366 7.81810989,7.69839415 C8.60778839,6.92004826 9.57366475,6.52545345 10.6880896,6.52545345 C11.8027927,6.52545345 12.7687084,6.92007579 13.5580716,7.6984925 C14.3489697,8.47847753 14.7507374,9.43444858 14.7507374,10.5382042 C14.7507374,11.6419993 14.348917,12.5981472 13.5580404,13.3777064 Z" id="Shape" stroke="#D1D5DD" fill="#FFFFFF" fill-rule="nonzero"></path>
                        <path d="M13.2069828,13.0216746 C12.5113577,13.7078455 11.6716941,14.050955 10.6880896,14.050955 C9.70458257,14.050955 8.86501649,13.7078455 8.16909887,13.0216746 C7.47342498,12.3357921 7.1254418,11.5078405 7.1254418,10.5382042 C7.1254418,9.5684718 7.47323,8.74066435 8.16909887,8.05449348 C8.86501649,7.36856292 9.7047288,7.02545345 10.6880896,7.02545345 C11.6716941,7.02545345 12.5114064,7.36856292 13.2069828,8.05449348 C13.9027542,8.74066435 14.2507374,9.5684718 14.2507374,10.5382042 C14.2507374,11.5078405 13.9028029,12.3358402 13.2069828,13.0216746 Z" id="Path" fill="#E3EDFA"></path>
                    </g>
                    <rect id="Rectangle-18" fill="#D1D5DD" x="5.25483315" y="7.01602893" width="3.29954639" height="3.10545543"></rect>
                    <rect id="Rectangle-18" fill="#D1D5DD" x="10.7540771" y="7.01602893" width="3.29954639" height="3.10545543"></rect>
                    <rect id="Rectangle-18" fill="#D1D5DD" x="16.2533211" y="7.01602893" width="3.29954639" height="3.10545543"></rect>
                    <polygon id="Rectangle-15" fill="#D1D5DD" points="0.977643376 14.0320579 59.7215102 14.0320579 59.7215102 15.0672097 0.977643376 15.0672097"></polygon>
                    <polygon id="Rectangle-15" fill="#ECF5FF" points="0.977643376 15.0672097 59.7215102 15.0672097 59.7215102 16.1023615 0.977643376 16.1023615"></polygon>
                </g>
            </g>
        </g>
    </g>
</svg>