<?xml version="1.0" encoding="UTF-8"?>
<svg width="54px" height="54px" viewBox="0 0 54 54" version="1.1" xmlns="http://www.w3.org/2000/svg" xmlns:xlink="http://www.w3.org/1999/xlink">
    <!-- Generator: Sketch 50.2 (55047) - http://www.bohemiancoding.com/sketch -->
    <title>Group</title>
    <desc>Created with Sketch.</desc>
    <defs></defs>
    <g id="Final" stroke="none" stroke-width="1" fill="none" fill-rule="evenodd">
        <g id="switch-panel-submit-feedback-success" transform="translate(-609.000000, -518.000000)">
            <g id="Group-3" transform="translate(509.000000, 518.000000)">
                <g id="Group" transform="translate(100.000000, 0.000000)">
                    <circle id="Oval" fill="#468DEF" cx="27" cy="27" r="27"></circle>
                    <g id="like-(1)" transform="translate(14.785714, 12.857143)" fill="#FFFFFF" fill-rule="nonzero" stroke="#468DEF" stroke-width="0.3">
                        <path d="M24.2420221,17.4524307 C24.7681181,16.7813898 25.0204295,16.062034 24.9882195,15.3212049 C24.9560095,14.5052192 24.5909633,13.8663883 24.290337,13.4745004 C24.6392783,12.6048315 24.7734864,11.2359081 23.6085595,10.1729794 C22.7549955,9.39457203 21.3055473,9.04563078 19.297793,9.14226066 C17.8859231,9.20668058 16.7048911,9.4697286 16.6565762,9.48046525 L16.6512079,9.48046525 C16.3827915,9.5287802 16.0982702,9.58783179 15.8083806,9.65225171 C15.7869072,9.3086788 15.8459588,8.45511482 16.4794214,6.5332538 C17.2309872,4.24634656 17.1880406,2.496272 16.3398449,1.32597674 C15.4487027,0.0966298837 14.026096,5.68434189e-14 13.6073665,5.68434189e-14 C13.204742,5.68434189e-14 12.8343275,0.166418133 12.5712795,0.472412765 C11.9753952,1.16492693 12.0451834,2.44258873 12.12034,3.03310468 C11.4117208,4.93349239 9.4254399,9.59320012 7.74515359,10.8869669 C7.71294363,10.9084402 7.686102,10.9352818 7.65926036,10.9621235 C7.16537429,11.4828512 6.83253803,12.0465255 6.6070683,12.5404116 C6.29033701,12.3686251 5.93065911,12.2719952 5.54413958,12.2719952 L2.26946018,12.2719952 C1.034745,12.2719952 0.0362362064,13.2758724 0.0362362064,14.5052192 L0.0362362064,23.2287504 C0.0362362064,24.4634656 1.04011333,25.4619744 2.26946018,25.4619744 L5.54413958,25.4619744 C6.02192067,25.4619744 6.4674918,25.3116612 6.83253803,25.0539815 L8.09409484,25.2042947 C8.28735461,25.2311363 11.7230838,25.6659708 15.2500746,25.5961825 C15.8889055,25.6444975 16.4901581,25.6713391 17.0484641,25.6713391 C18.0093946,25.6713391 18.8468536,25.5961825 19.5447361,25.4458694 C21.1874441,25.0969281 22.3094244,24.3990456 22.878467,23.3736952 C23.3133015,22.5899195 23.3133015,21.8115121 23.2435133,21.317626 C24.3118103,20.3513272 24.4997018,19.2830301 24.4621235,18.5314644 C24.4406502,18.0966299 24.3440203,17.7262153 24.2420221,17.4524307 Z M2.26946018,24.0125261 C1.83462571,24.0125261 1.48568446,23.6582165 1.48568446,23.2287504 L1.48568446,14.4998509 C1.48568446,14.0650164 1.83999404,13.7160752 2.26946018,13.7160752 L5.54413958,13.7160752 C5.97897405,13.7160752 6.3279153,14.0703847 6.3279153,14.4998509 L6.3279153,23.223382 C6.3279153,23.6582165 5.97360573,24.0071578 5.54413958,24.0071578 L2.26946018,24.0071578 L2.26946018,24.0125261 Z M22.8677304,16.8243364 C22.6422607,17.0605428 22.599314,17.4202207 22.7711005,17.6993737 C22.7711005,17.704742 22.9912019,18.0805249 23.0180435,18.5958843 C23.0556218,19.2991351 22.7174172,19.921861 22.0087981,20.4533254 C21.7564867,20.6465851 21.6544885,20.9794214 21.7618551,21.2800477 C21.7618551,21.285416 21.9926931,21.9940352 21.6169102,22.6650761 C21.2572323,23.3092753 20.4573516,23.7709514 19.2441098,24.0286311 C18.2724426,24.2379958 16.9518342,24.2755741 15.3305995,24.1467343 C15.3091262,24.1467343 15.2822845,24.1467343 15.2554429,24.1467343 C11.8036087,24.2218908 8.31419624,23.7709514 8.27661795,23.7655831 L8.27124963,23.7655831 L7.72904861,23.7011631 C7.76125857,23.55085 7.77736356,23.3898002 7.77736356,23.2287504 L7.77736356,14.4998509 C7.77736356,14.2690128 7.73978527,14.0435431 7.67536534,13.8341783 C7.77199523,13.4745004 8.04041157,12.6746197 8.67387414,11.9928422 C11.0842529,10.0817179 13.4409484,3.63435729 13.5429466,3.35520429 C13.5858932,3.24246943 13.5966299,3.11899791 13.5751566,2.99552639 C13.483895,2.39427378 13.516105,1.658813 13.6449448,1.4387116 C13.9294661,1.44407993 14.6971369,1.52460483 15.158813,2.16343573 C15.7063823,2.92036982 15.684909,4.27318819 15.0943931,6.06620936 C14.1925142,8.79868774 14.1173576,10.2373993 14.8313451,10.8708619 C15.1856546,11.1875932 15.6580674,11.2036982 16.0016403,11.0802267 C16.3291083,11.0050701 16.6404712,10.9406502 16.9357292,10.8923352 C16.9572025,10.8869669 16.9840441,10.8815986 17.0055174,10.8762302 C18.6535938,10.5165523 21.6061736,10.2964509 22.631524,11.2305398 C23.501193,12.0250522 22.8838354,13.0772443 22.8140471,13.1899791 C22.615419,13.4906054 22.6744706,13.8824933 22.942887,14.124068 C22.9482553,14.1294363 23.5119296,14.6609007 23.5387712,15.3748882 C23.5602446,15.8526693 23.3347748,16.341187 22.8677304,16.8243364 Z" id="Shape"></path>
                    </g>
                </g>
            </g>
        </g>
    </g>
</svg>